<?xml version="1.0" encoding="utf-8"?>
<!-- Generator: Adobe Illustrator 26.0.3, SVG Export Plug-In . SVG Version: 6.00 Build 0)  -->
<svg version="1.1" id="Layer_1" xmlns="http://www.w3.org/2000/svg" xmlns:xlink="http://www.w3.org/1999/xlink" x="0px" y="0px"
	 viewBox="0 0 141.73 27.52" style="enable-background:new 0 0 141.73 27.52;" xml:space="preserve">
<g>
	<g>
		<g>
			<path d="M73.22,13.93v-0.09c0-3.81,2.36-6.46,5.47-6.46c1.7,0,2.8,0.65,3.77,1.53L81.88,9.6c-0.85-0.81-1.84-1.39-3.23-1.39
				c-2.54,0-4.51,2.33-4.51,5.61v0.07c0,3.32,1.97,5.65,4.51,5.65c1.35,0,2.36-0.54,3.32-1.48l0.56,0.63
				c-1.03,0.97-2.22,1.68-3.92,1.68C75.55,20.38,73.22,17.8,73.22,13.93"/>
			<path d="M83.9,13.95v-0.13c0-3.68,2.17-6.46,5.34-6.46c3.18,0,5.31,2.76,5.31,6.44v0.13c0,3.68-2.15,6.46-5.32,6.46
				C86.05,20.39,83.9,17.63,83.9,13.95 M93.63,13.95v-0.13c0-3.25-1.88-5.63-4.4-5.63c-2.54,0-4.4,2.36-4.4,5.61v0.13
				c0,3.25,1.88,5.63,4.42,5.63C91.77,19.56,93.63,17.2,93.63,13.95"/>
			<polygon points="97.27,7.56 104.73,7.56 104.73,8.39 98.18,8.39 98.18,13.61 104.06,13.61 104.06,14.44 98.18,14.44 98.18,20.2 
				97.27,20.2 			"/>
			<polygon points="107.18,7.56 114.63,7.56 114.63,8.39 108.08,8.39 108.08,13.61 113.97,13.61 113.97,14.44 108.08,14.44 
				108.08,20.2 107.18,20.2 			"/>
			<polygon points="117.09,7.56 124.65,7.56 124.65,8.39 117.99,8.39 117.99,13.41 123.98,13.41 123.98,14.24 117.99,14.24 
				117.99,19.37 124.74,19.37 124.74,20.2 117.09,20.2 			"/>
			<polygon points="127.28,7.56 134.84,7.56 134.84,8.39 128.19,8.39 128.19,13.41 134.18,13.41 134.18,14.24 128.19,14.24 
				128.19,19.37 134.93,19.37 134.93,20.2 127.28,20.2 			"/>
			<path d="M39.56,13.79l-0.33-0.11l0.31-0.14c1.35-0.62,2-1.54,2-2.83v-0.06c0-0.86-0.3-1.55-0.91-2.12
				c-0.76-0.7-2.01-1.09-3.52-1.09h-4.91v12.9h5.05c3.06,0,4.89-1.29,4.89-3.46v-0.08C42.15,15.33,41.33,14.37,39.56,13.79
				 M34.24,9.13h2.72c1.6,0,2.52,0.69,2.52,1.88v0.04c0,1.25-0.99,2-2.66,2h-2.58V9.13z M40.08,16.65c0,1.25-1.03,2-2.76,2h-3.08
				v-4.03h2.98c1.82,0,2.86,0.73,2.86,2V16.65z"/>
			<polygon points="46.82,14.69 52.65,14.69 52.65,12.99 46.82,12.99 46.82,9.14 53.4,9.14 53.4,7.44 44.77,7.44 44.77,20.34 
				53.5,20.34 53.5,18.63 46.82,18.63 			"/>
			<polygon points="62.07,13.74 66.14,7.44 63.86,7.44 60.88,12.3 57.94,7.44 55.6,7.44 59.65,13.76 55.42,20.34 57.7,20.34 
				60.84,15.19 63.98,20.34 66.35,20.34 			"/>
			<path d="M7.8,14.56h4.68L7.8,17.68V14.56z M7.8,10.01l4.68,3.12H7.8V10.01z M23.36,7.33l-8.5,5.65l-8.5-5.65v13.03l8.5-5.65
				l8.5,5.65v-2.62h-1.35l-4.77-3.17h6.12v-1.44h-6.12l4.77-3.18h1.35V7.33z"/>
		</g>
	</g>
</g>
</svg>
