<svg width="132" height="22" viewBox="0 0 132 22" fill="none" xmlns="http://www.w3.org/2000/svg">
<path d="M91.3956 11.9681C90.5802 12.2954 89.6719 12.3785 88.7992 12.2551C87.9052 12.1294 87.0898 11.7522 86.4031 11.1615C85.6974 10.5518 85.1657 9.79265 84.8915 8.90778C84.7628 8.48788 84.6913 8.03952 84.6817 7.56506C84.6817 7.49152 84.6793 7.41323 84.6817 7.32783C84.6817 6.52599 84.6817 5.72178 84.6817 4.91519C84.6817 4.63052 84.7103 4.33398 84.7676 4.02558C84.9273 3.15257 85.335 2.36971 85.943 1.71259C86.2124 1.42079 86.5009 1.16696 86.8108 0.951076C87.5261 0.452893 88.3462 0.175333 89.2355 0.123142C89.6742 0.0970471 90.0986 0.123142 90.5135 0.196684C91.3861 0.355628 92.1681 0.754175 92.8261 1.352C93.508 1.97354 94.0159 2.73505 94.2638 3.6128C94.3854 4.03981 94.445 4.49055 94.445 4.96264C94.445 5.83328 94.445 6.68968 94.445 7.53185C94.445 7.69791 94.4331 7.88057 94.4093 8.07985C94.3091 8.92201 94.0039 9.67641 93.4961 10.3407C92.9549 11.05 92.2301 11.6336 91.4004 11.9681H91.3956ZM90.4825 3.47283C90.0986 3.19765 89.6218 3.11462 89.1545 3.18816C88.8469 3.23798 88.5608 3.37557 88.3248 3.57959C87.9266 3.9212 87.7001 4.36957 87.7001 4.89622C87.7001 5.73127 87.7001 6.55683 87.7001 7.37527C87.7001 7.4583 87.7025 7.53659 87.7097 7.60776C87.7597 8.12018 88.0363 8.54719 88.4535 8.8461C88.7182 9.03588 89.0353 9.14027 89.3643 9.15687C89.946 9.18534 90.4276 8.9837 90.8091 8.55194C91.0547 8.27438 91.193 7.94937 91.224 7.57929C91.2287 7.51049 91.2335 7.43221 91.2335 7.34681C91.2335 6.53548 91.2335 5.72178 91.2335 4.90333C91.2335 4.31263 90.9617 3.81207 90.4825 3.47046V3.47283Z" fill="#B12118"/>
<path d="M94.4454 16.9715H84.6845C84.6845 16.9715 84.6797 16.9715 84.6797 16.9667V14.1864C84.6797 14.1864 84.6797 14.1816 84.6845 14.1816H94.4454C94.4454 14.1816 94.4501 14.1816 94.4501 14.1864V16.9667C94.4501 16.9667 94.4501 16.9715 94.4454 16.9715Z" fill="#B12118"/>
<path d="M8.47344 3.20961H3.13522V8.76791H6.98332V11.6716H3.13522V18.0009H8.47344V20.9046H0V0.305908H8.47344V3.20961Z" fill="#272727"/>
<path d="M17.5954 5.40149C17.4905 4.47629 17.3117 3.82628 17.0518 3.4562C16.7919 3.08612 16.3747 2.90108 15.7953 2.90108C15.2565 2.90108 14.8321 3.08612 14.5221 3.4562C14.2122 3.82628 14.0572 4.31972 14.0572 4.93652C14.0572 5.28525 14.0978 5.61025 14.1812 5.90679C14.2647 6.2057 14.4077 6.51885 14.6151 6.84622C14.8226 7.17597 15.1015 7.5247 15.452 7.89478C15.8025 8.26486 16.2578 8.70611 16.8181 9.2209C17.624 9.96106 18.2868 10.6087 18.8042 11.1638C19.3215 11.7189 19.7292 12.248 20.0296 12.7509C20.3301 13.2538 20.5351 13.7567 20.6495 14.262C20.764 14.765 20.8212 15.3248 20.8212 15.9416C20.8212 16.7221 20.702 17.4362 20.4636 18.0838C20.2251 18.7315 19.889 19.2866 19.4551 19.7492C19.0211 20.2118 18.5038 20.5724 17.9029 20.8286C17.3021 21.0848 16.6417 21.2129 15.9169 21.2129C15.1516 21.2129 14.4578 21.0777 13.8379 20.8072C13.218 20.5368 12.6839 20.1572 12.2405 19.6685C11.7946 19.1798 11.4441 18.5939 11.1843 17.913C10.9244 17.2322 10.7861 16.4683 10.7646 15.6237L13.7139 15.0995C13.7973 17.2417 14.5317 18.3116 15.9169 18.3116C16.4963 18.3116 16.9564 18.1052 17.2974 17.6948C17.6383 17.2844 17.81 16.7387 17.81 16.0602C17.81 15.2987 17.5405 14.561 17.0041 13.8398C16.8801 13.6761 16.7657 13.5314 16.6632 13.408C16.5582 13.2847 16.4247 13.1423 16.2602 12.9763C16.0933 12.8126 15.8835 12.6062 15.6236 12.3595C15.3638 12.1127 15.0181 11.7948 14.5841 11.4034C13.9213 10.808 13.3682 10.2481 12.9247 9.72383C12.4789 9.19955 12.1189 8.69188 11.8375 8.19844C11.5562 7.705 11.3559 7.20681 11.232 6.70389C11.108 6.20096 11.046 5.66007 11.046 5.08597C11.046 3.54398 11.4847 2.31275 12.3644 1.38755C13.2442 0.462355 14.4292 -0.000244141 15.9169 -0.000244141C18.6683 -0.000244141 20.2299 1.658 20.6019 4.9721L17.5906 5.40386L17.5954 5.40149Z" fill="#272727"/>
<path d="M26.7505 20.9022H23.6152V0.305908H27.9592C28.9535 0.305908 29.7903 0.41029 30.4722 0.614308C31.1541 0.820698 31.7072 1.16468 32.1316 1.64863C32.556 2.13258 32.8612 2.7565 33.0471 3.51801C33.2331 4.27952 33.3261 5.21658 33.3261 6.32681C33.3261 7.43705 33.2331 8.38123 33.0471 9.15223C32.8612 9.92323 32.5584 10.5519 32.1364 11.0358C31.7144 11.5198 31.1636 11.8638 30.4841 12.0702C29.8046 12.2766 28.9701 12.3786 27.9831 12.3786H26.7481V20.8999L26.7505 20.9022ZM27.7256 9.47723C28.2144 9.47723 28.6197 9.43216 28.9439 9.33964C29.2682 9.24712 29.5233 9.0858 29.7069 8.85094C29.8904 8.61609 30.0168 8.29583 30.0883 7.88779C30.1599 7.47975 30.1956 6.96022 30.1956 6.32681C30.1956 5.69341 30.1599 5.20709 30.0883 4.79905C30.0168 4.39101 29.8904 4.07075 29.7069 3.8359C29.5233 3.60104 29.2706 3.43735 28.9439 3.3472C28.6197 3.25468 28.212 3.20961 27.7256 3.20961H26.7505V9.47723H27.7256Z" fill="#272727"/>
<path d="M39.3823 20.9022H36.2471V0.305908H40.5911C42.3911 0.305908 43.7048 0.785113 44.5322 1.74115C45.3595 2.69719 45.7743 4.20597 45.7743 6.26513C45.7743 7.60311 45.617 8.66353 45.3046 9.44639C44.9899 10.2293 44.4463 10.8982 43.6738 11.4534L46.0843 20.9022H42.7631L40.8438 12.286H39.3799V20.9022H39.3823ZM40.3574 9.38471C40.9249 9.38471 41.3421 9.32778 41.6044 9.21628C41.8666 9.10478 42.0812 8.87467 42.2433 8.52831C42.508 7.95659 42.6391 7.21406 42.6391 6.29597C42.6391 5.37789 42.508 4.63536 42.2433 4.06364C42.0812 3.71728 41.8666 3.48717 41.6044 3.37567C41.3397 3.26417 40.9249 3.20723 40.3574 3.20723H39.3823V9.38234H40.3574V9.38471Z" fill="#272727"/>
<path d="M57.4451 3.20961H52.1069V8.76791H55.955V11.6716H52.1069V18.0009H57.4451V20.9046H48.9717V0.305908H57.4451V3.20961Z" fill="#272727"/>
<path d="M66.567 5.40149C66.4645 4.47629 66.2833 3.82628 66.0234 3.4562C65.7635 3.08612 65.3463 2.90108 64.7669 2.90108C64.2281 2.90108 63.8037 3.08612 63.4938 3.4562C63.1838 3.82628 63.0288 4.31972 63.0288 4.93652C63.0288 5.28525 63.0694 5.61025 63.1528 5.90679C63.2363 6.2057 63.3793 6.51885 63.5868 6.84622C63.7942 7.17597 64.0731 7.5247 64.4236 7.89478C64.7741 8.26486 65.2295 8.70611 65.7898 9.2209C66.5956 9.96106 67.2584 10.6087 67.7758 11.1638C68.2932 11.7189 68.7009 12.248 69.0013 12.7509C69.3017 13.2538 69.5067 13.7567 69.6212 14.262C69.7332 14.765 69.7904 15.3248 69.7904 15.9416C69.7904 16.7221 69.6712 17.4362 69.4328 18.0838C69.1944 18.7315 68.8582 19.2866 68.4243 19.7492C67.9904 20.2118 67.473 20.5724 66.8722 20.8286C66.2714 21.0848 65.6109 21.2129 64.8861 21.2129C64.1208 21.2129 63.427 21.0777 62.8071 20.8072C62.1872 20.5368 61.6532 20.1572 61.2097 19.6685C60.7639 19.1798 60.4134 18.5939 60.1535 17.913C59.8936 17.2322 59.7553 16.4683 59.7339 15.6237L62.6831 15.0995C62.7666 17.2417 63.5009 18.3116 64.8861 18.3116C65.4655 18.3116 65.9257 18.1052 66.2666 17.6948C66.6075 17.2844 66.7792 16.7387 66.7792 16.0602C66.7792 15.2987 66.5098 14.561 65.9733 13.8398C65.8494 13.6761 65.7349 13.5314 65.6324 13.408C65.5275 13.2847 65.394 13.1423 65.2295 12.9763C65.0626 12.8126 64.8528 12.6062 64.5929 12.3595C64.333 12.1127 63.9873 11.7948 63.5534 11.4034C62.8906 10.808 62.3374 10.2481 61.894 9.72383C61.4481 9.19955 61.0881 8.69188 60.8068 8.19844C60.5254 7.705 60.3252 7.20681 60.2012 6.70389C60.0772 6.20096 60.0152 5.66007 60.0152 5.08597C60.0152 3.54398 60.4539 2.31275 61.3337 1.38755C62.2135 0.462355 63.3984 -0.000244141 64.8861 -0.000244141C67.6375 -0.000244141 69.1992 1.658 69.5735 4.9721L66.5622 5.40386L66.567 5.40149Z" fill="#272727"/>
<path d="M78.7336 5.40149C78.631 4.47629 78.4498 3.82628 78.19 3.4562C77.9301 3.08612 77.5129 2.90108 76.9335 2.90108C76.3947 2.90108 75.9703 3.08612 75.6603 3.4562C75.3504 3.82628 75.1954 4.31972 75.1954 4.93652C75.1954 5.28525 75.2359 5.61025 75.3194 5.90679C75.4028 6.2057 75.5459 6.51885 75.7533 6.84622C75.9607 7.17597 76.2397 7.5247 76.5902 7.89478C76.9406 8.26486 77.396 8.70611 77.9563 9.2209C78.7622 9.96106 79.425 10.6087 79.9423 11.1638C80.4597 11.7189 80.8674 12.248 81.1678 12.7509C81.4682 13.2538 81.6757 13.7567 81.7877 14.262C81.9022 14.765 81.9594 15.3248 81.9594 15.9416C81.9594 16.7221 81.8402 17.4362 81.6018 18.0838C81.3633 18.7315 81.0272 19.2866 80.5932 19.7492C80.1593 20.2118 79.6419 20.5724 79.0411 20.8286C78.4403 21.0848 77.7799 21.2129 77.0551 21.2129C76.2898 21.2129 75.596 21.0777 74.9761 20.8072C74.3562 20.5368 73.8221 20.1572 73.3787 19.6685C72.9328 19.1798 72.5823 18.5939 72.3225 17.913C72.0626 17.2322 71.9243 16.4683 71.9028 15.6237L74.8521 15.0995C74.9355 17.2417 75.6699 18.3116 77.0551 18.3116C77.6344 18.3116 78.0946 18.1052 78.4355 17.6948C78.7765 17.2844 78.9481 16.7387 78.9481 16.0602C78.9481 15.2987 78.6787 14.561 78.1423 13.8398C78.0183 13.6761 77.9039 13.5314 77.8013 13.408C77.6964 13.2847 77.5629 13.1423 77.3984 12.9763C77.2315 12.8126 77.0217 12.6062 76.7618 12.3595C76.502 12.1127 76.1562 11.7948 75.7223 11.4034C75.0595 10.808 74.5064 10.2481 74.0629 9.72383C73.6171 9.19955 73.2571 8.69188 72.9757 8.19844C72.6968 7.705 72.4941 7.20681 72.3701 6.70389C72.2462 6.20096 72.1842 5.66007 72.1842 5.08597C72.1842 3.54398 72.6229 2.31275 73.5026 1.38755C74.3824 0.462355 75.5673 -0.000244141 77.0551 -0.000244141C79.8065 -0.000244141 81.3681 1.658 81.74 4.9721L78.7288 5.40386L78.7336 5.40149Z" fill="#272727"/>
<path d="M105.479 20.9021H97.1943V0.274902H100.33V17.9984H105.482V20.9021H105.479Z" fill="#272727"/>
<path d="M111.81 16.364L111.097 20.9022H108.023L111.407 0.305908H115.441L119.041 20.9022H115.844L115.131 16.364H111.81ZM113.424 5.24742L112.243 13.4603H114.663L113.421 5.24742H113.424Z" fill="#272727"/>
<path d="M121.802 0.305908H126.129C129.574 0.305908 131.298 2.07327 131.298 5.60801C131.298 6.71824 131.131 7.62684 130.795 8.33616C130.459 9.04548 129.894 9.67651 129.1 10.2316C130.02 10.6847 130.678 11.3134 131.074 12.1176C131.47 12.9218 131.67 14.0036 131.67 15.3653C131.67 17.4268 131.162 18.9332 130.144 19.8798C129.729 20.2712 129.257 20.5393 128.728 20.684C128.199 20.8287 127.426 20.8999 126.408 20.8999H121.799V0.305908H121.802ZM125.588 8.79875C126.539 8.79875 127.221 8.5639 127.636 8.09655C128.051 7.62921 128.256 6.85347 128.256 5.77644C128.256 4.06601 127.543 3.21198 126.115 3.21198H124.935V8.80113H125.585L125.588 8.79875ZM126.074 18.0009C126.935 18.0009 127.562 17.7708 127.951 17.3082C128.339 16.848 128.535 16.0841 128.535 15.0189C128.535 13.6477 128.206 12.6941 127.55 12.1603C127.345 11.9966 127.104 11.878 126.825 11.8068C126.549 11.7357 126.174 11.7001 125.702 11.7001H124.932V17.9985H126.072L126.074 18.0009Z" fill="#272727"/>
</svg>
