<svg width="42" height="42" viewBox="0 0 42 42" fill="none" xmlns="http://www.w3.org/2000/svg">
<rect width="42" height="42" rx="9.33333" fill="#AE0101"/>
<path d="M21.0913 3.89258C23.847 3.89258 26.1907 4.86029 28.1223 6.7957C30.051 8.73112 31.0182 11.0662 31.0182 13.7923V18.8107C31.0182 21.5625 30.0482 23.9004 28.1051 25.8244C26.1621 27.7484 23.8242 28.7133 21.0913 28.7133C18.3585 28.7133 15.9976 27.7456 14.0775 25.8102C12.1574 23.8748 11.1987 21.5397 11.1987 18.8107V13.7923C11.1987 11.0433 12.1688 8.70543 14.109 6.77858C16.0492 4.85458 18.3756 3.89258 21.0885 3.89258L21.0913 3.89258ZM24.4995 13.661C24.4995 12.6705 24.1532 11.8284 23.4579 11.1347C22.7625 10.441 21.9183 10.0956 20.9253 10.0956C19.9324 10.0956 19.0853 10.441 18.3785 11.1347C17.6717 11.8284 17.3197 12.6705 17.3197 13.661V18.7479C17.3197 19.7384 17.6717 20.5806 18.3785 21.2742C19.0853 21.9679 19.9352 22.3133 20.9253 22.3133C21.9155 22.3133 22.7625 21.965 23.4579 21.2742C24.1532 20.5806 24.4995 19.7384 24.4995 18.7479V13.661Z" fill="white"/>
<path d="M30.8243 32.4272H10.9819V38.1079H30.8243V32.4272Z" fill="white"/>
</svg>
